# MagicaVoxel @ Ephtracy

# group
o 

# material
mtllib knife-1.mtl
usemtl palette

# normals
vn -1 0 0
vn 1 0 0
vn 0 0 1
vn 0 0 -1
vn 0 -1 0
vn 0 1 0

# texcoords
vt 0.0332031 0.5
vt 0.654297 0.5

# verts
v 3.6 2.5 1.9
v 3.6 2.5 1.8
v 3.6 2.6 1.8
v 3.6 2.6 1.6
v 3.6 2.7 2
v 3.6 2.7 1.9
v 3.6 2.7 1.6
v 3.6 2.7 1.4
v 3.6 2.8 1.5
v 3.6 2.8 1.4
v 3.6 2.9 2
v 3.6 2.9 1.9
v 3.6 3 1.9
v 3.6 3 1.7
v 3.6 3 1.6
v 3.6 3 1.5
v 3.6 3.1 1.7
v 3.6 3.1 1.6
v 3.7 1.9 1.3
v 3.7 1.9 1.1
v 3.7 2 1.5
v 3.7 2 1.3
v 3.7 2 1.1
v 3.7 2 1
v 3.7 2.1 1
v 3.7 2.1 0.8
v 3.7 2.2 1.6
v 3.7 2.2 1.5
v 3.7 2.2 1.3
v 3.7 2.2 1.2
v 3.7 2.2 0.8
v 3.7 2.2 0.3
v 3.7 2.3 1.2
v 3.7 2.3 1.1
v 3.7 2.4 1.7
v 3.7 2.4 1.6
v 3.7 2.4 1.4
v 3.7 2.4 1.3
v 3.7 2.4 1.1
v 3.7 2.4 1
v 3.7 2.5 1.8
v 3.7 2.5 1.7
v 3.7 2.5 1
v 3.7 2.5 0.9
v 3.7 2.6 1.8
v 3.7 2.6 1.6
v 3.7 2.6 1.5
v 3.7 2.6 1.4
v 3.7 2.6 0.9
v 3.7 2.6 0.7
v 3.7 2.7 1.6
v 3.7 2.7 1.5
v 3.7 2.7 0.7
v 3.7 2.7 0.3
v 3.8 1.9 1.4
v 3.8 1.9 1.3
v 3.8 2 1.4
v 3.8 2 1.3
v 4.1 1.9 1.4
v 4.1 1.9 1.1
v 4.1 2 1.5
v 4.1 2 1.4
v 4.1 2 1.1
v 4.1 2 1
v 4.1 2.1 1
v 4.1 2.1 0.8
v 4.1 2.2 1.6
v 4.1 2.2 1.5
v 4.1 2.2 1.3
v 4.1 2.2 1.2
v 4.1 2.2 0.8
v 4.1 2.2 0.3
v 4.1 2.3 1.2
v 4.1 2.3 1.1
v 4.1 2.4 1.7
v 4.1 2.4 1.6
v 4.1 2.4 1.4
v 4.1 2.4 1.3
v 4.1 2.4 1.1
v 4.1 2.4 1
v 4.1 2.5 1.8
v 4.1 2.5 1.7
v 4.1 2.5 1
v 4.1 2.5 0.9
v 4.1 2.6 1.8
v 4.1 2.6 1.6
v 4.1 2.6 1.5
v 4.1 2.6 1.4
v 4.1 2.6 0.9
v 4.1 2.6 0.7
v 4.1 2.7 1.6
v 4.1 2.7 1.5
v 4.1 2.7 0.7
v 4.1 2.7 0.3
v 4.2 2.5 1.9
v 4.2 2.5 1.8
v 4.2 2.6 1.8
v 4.2 2.6 1.6
v 4.2 2.7 2
v 4.2 2.7 1.9
v 4.2 2.7 1.6
v 4.2 2.7 1.4
v 4.2 2.8 1.5
v 4.2 2.8 1.4
v 4.2 2.9 2
v 4.2 2.9 1.9
v 4.2 3 1.9
v 4.2 3 1.7
v 4.2 3 1.6
v 4.2 3 1.5
v 4.2 3.1 1.7
v 4.2 3.1 1.6
v 3.6 2.7 2
v 3.6 2.9 2
v 4.2 2.7 2
v 4.2 2.9 2
v 3.6 2.5 1.9
v 3.6 2.7 1.9
v 3.6 2.9 1.9
v 3.6 3 1.9
v 4.2 2.5 1.9
v 4.2 2.7 1.9
v 4.2 2.9 1.9
v 4.2 3 1.9
v 3.6 3 1.7
v 3.6 3.1 1.7
v 3.7 2.4 1.7
v 3.7 2.5 1.7
v 4.1 2.4 1.7
v 4.1 2.5 1.7
v 4.2 3 1.7
v 4.2 3.1 1.7
v 3.7 2.2 1.6
v 3.7 2.4 1.6
v 4.1 2.2 1.6
v 4.1 2.4 1.6
v 3.7 2 1.5
v 3.7 2.2 1.5
v 4.1 2 1.5
v 4.1 2.2 1.5
v 3.8 1.9 1.4
v 3.8 2 1.4
v 4.1 1.9 1.4
v 4.1 2 1.4
v 3.7 1.9 1.3
v 3.7 2 1.3
v 3.8 1.9 1.3
v 3.8 2 1.3
v 3.7 2.2 1.2
v 3.7 2.3 1.2
v 4.1 2.2 1.2
v 4.1 2.3 1.2
v 3.7 2.3 1.1
v 3.7 2.4 1.1
v 4.1 2.3 1.1
v 4.1 2.4 1.1
v 3.7 2.4 1
v 3.7 2.5 1
v 4.1 2.4 1
v 4.1 2.5 1
v 3.7 2.5 0.9
v 3.7 2.6 0.9
v 4.1 2.5 0.9
v 4.1 2.6 0.9
v 3.7 2.6 0.7
v 3.7 2.7 0.7
v 4.1 2.6 0.7
v 4.1 2.7 0.7
v 3.6 2.5 1.8
v 3.6 2.6 1.8
v 3.7 2.5 1.8
v 3.7 2.6 1.8
v 4.1 2.5 1.8
v 4.1 2.6 1.8
v 4.2 2.5 1.8
v 4.2 2.6 1.8
v 3.6 2.6 1.6
v 3.6 2.7 1.6
v 3.6 3 1.6
v 3.6 3.1 1.6
v 3.7 2.6 1.6
v 3.7 2.7 1.6
v 4.1 2.6 1.6
v 4.1 2.7 1.6
v 4.2 2.6 1.6
v 4.2 2.7 1.6
v 4.2 3 1.6
v 4.2 3.1 1.6
v 3.6 2.8 1.5
v 3.6 3 1.5
v 3.7 2.6 1.5
v 3.7 2.7 1.5
v 4.1 2.6 1.5
v 4.1 2.7 1.5
v 4.2 2.8 1.5
v 4.2 3 1.5
v 3.6 2.7 1.4
v 3.6 2.8 1.4
v 3.7 2.4 1.4
v 3.7 2.6 1.4
v 4.1 2.4 1.4
v 4.1 2.6 1.4
v 4.2 2.7 1.4
v 4.2 2.8 1.4
v 3.7 2.2 1.3
v 3.7 2.4 1.3
v 4.1 2.2 1.3
v 4.1 2.4 1.3
v 3.7 1.9 1.1
v 3.7 2 1.1
v 4.1 1.9 1.1
v 4.1 2 1.1
v 3.7 2 1
v 3.7 2.1 1
v 4.1 2 1
v 4.1 2.1 1
v 3.7 2.1 0.8
v 3.7 2.2 0.8
v 4.1 2.1 0.8
v 4.1 2.2 0.8
v 3.7 2.2 0.3
v 3.7 2.7 0.3
v 4.1 2.2 0.3
v 4.1 2.7 0.3
v 3.8 1.9 1.4
v 4.1 1.9 1.4
v 3.7 1.9 1.3
v 3.8 1.9 1.3
v 3.7 1.9 1.1
v 4.1 1.9 1.1
v 3.7 2 1.5
v 4.1 2 1.5
v 3.8 2 1.4
v 4.1 2 1.4
v 3.7 2 1.3
v 3.8 2 1.3
v 3.7 2 1.1
v 4.1 2 1.1
v 3.7 2 1
v 4.1 2 1
v 3.7 2.1 1
v 4.1 2.1 1
v 3.7 2.1 0.8
v 4.1 2.1 0.8
v 3.7 2.2 1.6
v 4.1 2.2 1.6
v 3.7 2.2 1.5
v 4.1 2.2 1.5
v 3.7 2.2 0.8
v 4.1 2.2 0.8
v 3.7 2.2 0.3
v 4.1 2.2 0.3
v 3.7 2.4 1.7
v 4.1 2.4 1.7
v 3.7 2.4 1.6
v 4.1 2.4 1.6
v 3.6 2.5 1.9
v 4.2 2.5 1.9
v 3.6 2.5 1.8
v 3.7 2.5 1.8
v 4.1 2.5 1.8
v 4.2 2.5 1.8
v 3.7 2.5 1.7
v 4.1 2.5 1.7
v 3.6 2.6 1.8
v 3.7 2.6 1.8
v 4.1 2.6 1.8
v 4.2 2.6 1.8
v 3.6 2.6 1.6
v 3.7 2.6 1.6
v 4.1 2.6 1.6
v 4.2 2.6 1.6
v 3.6 2.7 2
v 4.2 2.7 2
v 3.6 2.7 1.9
v 4.2 2.7 1.9
v 3.6 2.7 1.6
v 3.7 2.7 1.6
v 4.1 2.7 1.6
v 4.2 2.7 1.6
v 3.7 2.7 1.5
v 4.1 2.7 1.5
v 3.6 2.7 1.4
v 4.2 2.7 1.4
v 3.7 2.2 1.3
v 4.1 2.2 1.3
v 3.7 2.2 1.2
v 4.1 2.2 1.2
v 3.7 2.3 1.2
v 4.1 2.3 1.2
v 3.7 2.3 1.1
v 4.1 2.3 1.1
v 3.7 2.4 1.4
v 4.1 2.4 1.4
v 3.7 2.4 1.3
v 4.1 2.4 1.3
v 3.7 2.4 1.1
v 4.1 2.4 1.1
v 3.7 2.4 1
v 4.1 2.4 1
v 3.7 2.5 1
v 4.1 2.5 1
v 3.7 2.5 0.9
v 4.1 2.5 0.9
v 3.7 2.6 1.5
v 4.1 2.6 1.5
v 3.7 2.6 1.4
v 4.1 2.6 1.4
v 3.7 2.6 0.9
v 4.1 2.6 0.9
v 3.7 2.6 0.7
v 4.1 2.6 0.7
v 3.7 2.7 0.7
v 4.1 2.7 0.7
v 3.7 2.7 0.3
v 4.1 2.7 0.3
v 3.6 2.8 1.5
v 4.2 2.8 1.5
v 3.6 2.8 1.4
v 4.2 2.8 1.4
v 3.6 2.9 2
v 4.2 2.9 2
v 3.6 2.9 1.9
v 4.2 2.9 1.9
v 3.6 3 1.9
v 4.2 3 1.9
v 3.6 3 1.7
v 4.2 3 1.7
v 3.6 3 1.6
v 4.2 3 1.6
v 3.6 3 1.5
v 4.2 3 1.5
v 3.6 3.1 1.7
v 4.2 3.1 1.7
v 3.6 3.1 1.6
v 4.2 3.1 1.6

# faces
f 3/2/1 2/2/1 1/2/1
f 6/2/1 3/2/1 1/2/1
f 6/2/1 4/2/1 3/2/1
f 7/2/1 4/2/1 6/2/1
f 9/2/1 6/2/1 5/2/1
f 9/2/1 8/2/1 7/2/1
f 9/2/1 7/2/1 6/2/1
f 10/2/1 8/2/1 9/2/1
f 11/2/1 9/2/1 5/2/1
f 12/2/1 9/2/1 11/2/1
f 13/2/1 9/2/1 12/2/1
f 14/2/1 9/2/1 13/2/1
f 15/2/1 9/2/1 14/2/1
f 16/2/1 9/2/1 15/2/1
f 17/2/1 15/2/1 14/2/1
f 18/2/1 15/2/1 17/2/1
f 22/1/1 20/1/1 19/1/1
f 23/1/1 20/1/1 22/1/1
f 25/1/1 22/1/1 21/1/1
f 25/1/1 24/1/1 23/1/1
f 25/1/1 23/1/1 22/1/1
f 28/1/1 25/1/1 21/1/1
f 28/1/1 26/1/1 25/1/1
f 29/1/1 26/1/1 28/1/1
f 30/1/1 26/1/1 29/1/1
f 31/1/1 26/1/1 30/1/1
f 33/1/1 32/1/1 31/1/1
f 33/1/1 31/1/1 30/1/1
f 34/1/1 32/1/1 33/1/1
f 36/1/1 28/1/1 27/1/1
f 36/1/1 29/1/1 28/1/1
f 37/1/1 29/1/1 36/1/1
f 38/1/1 29/1/1 37/1/1
f 39/1/1 32/1/1 34/1/1
f 40/1/1 32/1/1 39/1/1
f 42/1/1 36/1/1 35/1/1
f 42/1/1 37/1/1 36/1/1
f 43/1/1 32/1/1 40/1/1
f 44/1/1 32/1/1 43/1/1
f 45/1/1 42/1/1 41/1/1
f 46/1/1 37/1/1 42/1/1
f 46/1/1 42/1/1 45/1/1
f 47/1/1 37/1/1 46/1/1
f 48/1/1 37/1/1 47/1/1
f 49/1/1 32/1/1 44/1/1
f 50/1/1 32/1/1 49/1/1
f 51/1/1 47/1/1 46/1/1
f 52/1/1 47/1/1 51/1/1
f 53/1/1 32/1/1 50/1/1
f 54/1/1 32/1/1 53/1/1
f 57/1/1 56/1/1 55/1/1
f 58/1/1 56/1/1 57/1/1
f 59/1/2 60/1/2 62/1/2
f 62/1/2 60/1/2 63/1/2
f 61/1/2 62/1/2 65/1/2
f 63/1/2 64/1/2 65/1/2
f 62/1/2 63/1/2 65/1/2
f 61/1/2 65/1/2 68/1/2
f 65/1/2 66/1/2 68/1/2
f 68/1/2 66/1/2 69/1/2
f 69/1/2 66/1/2 70/1/2
f 70/1/2 66/1/2 71/1/2
f 71/1/2 72/1/2 73/1/2
f 70/1/2 71/1/2 73/1/2
f 73/1/2 72/1/2 74/1/2
f 67/1/2 68/1/2 76/1/2
f 68/1/2 69/1/2 76/1/2
f 76/1/2 69/1/2 77/1/2
f 77/1/2 69/1/2 78/1/2
f 74/1/2 72/1/2 79/1/2
f 79/1/2 72/1/2 80/1/2
f 75/1/2 76/1/2 82/1/2
f 76/1/2 77/1/2 82/1/2
f 80/1/2 72/1/2 83/1/2
f 83/1/2 72/1/2 84/1/2
f 81/1/2 82/1/2 85/1/2
f 82/1/2 77/1/2 86/1/2
f 85/1/2 82/1/2 86/1/2
f 86/1/2 77/1/2 87/1/2
f 87/1/2 77/1/2 88/1/2
f 84/1/2 72/1/2 89/1/2
f 89/1/2 72/1/2 90/1/2
f 86/1/2 87/1/2 91/1/2
f 91/1/2 87/1/2 92/1/2
f 90/1/2 72/1/2 93/1/2
f 93/1/2 72/1/2 94/1/2
f 95/2/2 96/2/2 97/2/2
f 95/2/2 97/2/2 100/2/2
f 97/2/2 98/2/2 100/2/2
f 100/2/2 98/2/2 101/2/2
f 99/2/2 100/2/2 103/2/2
f 101/2/2 102/2/2 103/2/2
f 100/2/2 101/2/2 103/2/2
f 103/2/2 102/2/2 104/2/2
f 99/2/2 103/2/2 105/2/2
f 105/2/2 103/2/2 106/2/2
f 106/2/2 103/2/2 107/2/2
f 107/2/2 103/2/2 108/2/2
f 108/2/2 103/2/2 109/2/2
f 109/2/2 103/2/2 110/2/2
f 108/2/2 109/2/2 111/2/2
f 111/2/2 109/2/2 112/2/2
f 115/2/3 114/2/3 113/2/3
f 116/2/3 114/2/3 115/2/3
f 121/2/3 118/2/3 117/2/3
f 122/2/3 118/2/3 121/2/3
f 123/2/3 120/2/3 119/2/3
f 124/2/3 120/2/3 123/2/3
f 129/1/3 128/1/3 127/1/3
f 130/1/3 128/1/3 129/1/3
f 131/2/3 126/2/3 125/2/3
f 132/2/3 126/2/3 131/2/3
f 135/1/3 134/1/3 133/1/3
f 136/1/3 134/1/3 135/1/3
f 139/1/3 138/1/3 137/1/3
f 140/1/3 138/1/3 139/1/3
f 143/1/3 142/1/3 141/1/3
f 144/1/3 142/1/3 143/1/3
f 147/1/3 146/1/3 145/1/3
f 148/1/3 146/1/3 147/1/3
f 151/1/3 150/1/3 149/1/3
f 152/1/3 150/1/3 151/1/3
f 155/1/3 154/1/3 153/1/3
f 156/1/3 154/1/3 155/1/3
f 159/1/3 158/1/3 157/1/3
f 160/1/3 158/1/3 159/1/3
f 163/1/3 162/1/3 161/1/3
f 164/1/3 162/1/3 163/1/3
f 167/1/3 166/1/3 165/1/3
f 168/1/3 166/1/3 167/1/3
f 169/2/4 170/2/4 171/2/4
f 171/2/4 170/2/4 172/2/4
f 173/2/4 174/2/4 175/2/4
f 175/2/4 174/2/4 176/2/4
f 177/2/4 178/2/4 181/2/4
f 181/2/4 178/2/4 182/2/4
f 183/2/4 184/2/4 185/2/4
f 185/2/4 184/2/4 186/2/4
f 179/2/4 180/2/4 187/2/4
f 187/2/4 180/2/4 188/2/4
f 191/1/4 192/1/4 193/1/4
f 193/1/4 192/1/4 194/1/4
f 189/2/4 190/2/4 195/2/4
f 195/2/4 190/2/4 196/2/4
f 199/1/4 200/1/4 201/1/4
f 201/1/4 200/1/4 202/1/4
f 197/2/4 198/2/4 203/2/4
f 203/2/4 198/2/4 204/2/4
f 205/1/4 206/1/4 207/1/4
f 207/1/4 206/1/4 208/1/4
f 209/1/4 210/1/4 211/1/4
f 211/1/4 210/1/4 212/1/4
f 213/1/4 214/1/4 215/1/4
f 215/1/4 214/1/4 216/1/4
f 217/1/4 218/1/4 219/1/4
f 219/1/4 218/1/4 220/1/4
f 221/1/4 222/1/4 223/1/4
f 223/1/4 222/1/4 224/1/4
f 228/1/5 226/1/5 225/1/5
f 229/1/5 228/1/5 227/1/5
f 230/1/5 226/1/5 228/1/5
f 230/1/5 228/1/5 229/1/5
f 233/1/5 232/1/5 231/1/5
f 234/1/5 232/1/5 233/1/5
f 235/1/5 233/1/5 231/1/5
f 236/1/5 233/1/5 235/1/5
f 239/1/5 238/1/5 237/1/5
f 240/1/5 238/1/5 239/1/5
f 243/1/5 242/1/5 241/1/5
f 244/1/5 242/1/5 243/1/5
f 247/1/5 246/1/5 245/1/5
f 248/1/5 246/1/5 247/1/5
f 251/1/5 250/1/5 249/1/5
f 252/1/5 250/1/5 251/1/5
f 255/1/5 254/1/5 253/1/5
f 256/1/5 254/1/5 255/1/5
f 259/2/5 258/2/5 257/2/5
f 260/2/5 258/2/5 259/2/5
f 261/2/5 258/2/5 260/2/5
f 262/2/5 258/2/5 261/2/5
f 263/1/5 261/1/5 260/1/5
f 264/1/5 261/1/5 263/1/5
f 269/2/5 266/2/5 265/2/5
f 270/2/5 266/2/5 269/2/5
f 271/2/5 268/2/5 267/2/5
f 272/2/5 268/2/5 271/2/5
f 275/2/5 274/2/5 273/2/5
f 276/2/5 274/2/5 275/2/5
f 281/2/5 278/2/5 277/2/5
f 282/2/5 280/2/5 279/2/5
f 283/2/5 281/2/5 277/2/5
f 283/2/5 282/2/5 281/2/5
f 284/2/5 280/2/5 282/2/5
f 284/2/5 282/2/5 283/2/5
f 285/1/6 286/1/6 287/1/6
f 287/1/6 286/1/6 288/1/6
f 289/1/6 290/1/6 291/1/6
f 291/1/6 290/1/6 292/1/6
f 293/1/6 294/1/6 295/1/6
f 295/1/6 294/1/6 296/1/6
f 297/1/6 298/1/6 299/1/6
f 299/1/6 298/1/6 300/1/6
f 301/1/6 302/1/6 303/1/6
f 303/1/6 302/1/6 304/1/6
f 305/1/6 306/1/6 307/1/6
f 307/1/6 306/1/6 308/1/6
f 309/1/6 310/1/6 311/1/6
f 311/1/6 310/1/6 312/1/6
f 313/1/6 314/1/6 315/1/6
f 315/1/6 314/1/6 316/1/6
f 317/2/6 318/2/6 319/2/6
f 319/2/6 318/2/6 320/2/6
f 321/2/6 322/2/6 323/2/6
f 323/2/6 322/2/6 324/2/6
f 325/2/6 326/2/6 327/2/6
f 327/2/6 326/2/6 328/2/6
f 329/2/6 330/2/6 331/2/6
f 331/2/6 330/2/6 332/2/6
f 333/2/6 334/2/6 335/2/6
f 335/2/6 334/2/6 336/2/6
