# MagicaVoxel @ Ephtracy

# group
o 

# material
mtllib untitled-2.mtl
usemtl palette

# normals
vn -1 0 0
vn 1 0 0
vn 0 0 1
vn 0 0 -1
vn 0 -1 0
vn 0 1 0

# texcoords
vt 0.986328 0.5
vt 0.990234 0.5
vt 0.994141 0.5

# verts
v -3.5 2.5 0
v -3.5 2.5 -0.2
v -3.5 2.5 -0.4
v -3.5 2.8 -0.2
v -3.5 2.8 -0.3
v -3.5 2.9 0
v -3.5 2.9 -0.1
v -3.5 2.9 -0.4
v -3.5 2.9 -0.5
v -3.5 3.1 -0.1
v -3.5 3.1 -0.3
v -3.5 3.2 0.1
v -3.5 3.2 -0.1
v -3.5 3.2 -0.5
v -3.5 3.2 -1.4
v -3.5 3.3 0.1
v -3.5 3.3 -1.4
v -3.5 3.3 -1.5
v -3.5 3.5 0.1
v -3.5 3.5 0
v -3.5 3.6 0
v -3.5 3.6 -0.2
v -3.5 3.6 -0.4
v -3.5 3.6 -1.5
v -3.5 3.7 -0.2
v -3.5 3.7 -0.4
v -3.4 2.9 -0.5
v -3.4 2.9 -0.8
v -3.4 3 -0.6
v -3.4 3 -0.8
v -3.4 3 -0.9
v -3.4 3.2 -0.5
v -3.4 3.2 -0.6
v -3.4 3.2 -0.8
v -3.4 3.2 -0.9
v -3.4 3.6 -1.3
v -3.4 3.6 -1.5
v -3.4 3.7 -1.3
v -3.4 3.7 -1.5
v -3.3 3.4 -1.4
v -3.3 3.4 -1.5
v -3.3 3.5 -1.4
v -3.3 3.5 -1.5
v -3.3 3.6 -0.2
v -3.3 3.6 -0.4
v -3.3 3.7 -0.2
v -3.3 3.7 -0.4
v -3.4 3.4 -1.4
v -3.4 3.4 -1.5
v -3.4 3.5 -1.4
v -3.4 3.5 -1.5
v -3.4 3.6 -0.2
v -3.4 3.6 -0.4
v -3.4 3.7 -0.2
v -3.4 3.7 -0.4
v -3.3 2.9 -0.5
v -3.3 2.9 -0.8
v -3.3 3 -0.6
v -3.3 3 -0.8
v -3.3 3 -0.9
v -3.3 3.2 -0.5
v -3.3 3.2 -0.6
v -3.3 3.2 -0.8
v -3.3 3.2 -0.9
v -3.3 3.6 -1.3
v -3.3 3.6 -1.5
v -3.3 3.7 -1.3
v -3.3 3.7 -1.5
v -3.2 2.5 0
v -3.2 2.5 -0.4
v -3.2 2.6 0
v -3.2 2.6 -0.2
v -3.2 2.9 0
v -3.2 2.9 -0.1
v -3.2 2.9 -0.2
v -3.2 2.9 -0.3
v -3.2 2.9 -0.4
v -3.2 2.9 -0.5
v -3.2 3.1 -0.1
v -3.2 3.1 -0.3
v -3.2 3.2 0.1
v -3.2 3.2 -0.1
v -3.2 3.2 -0.5
v -3.2 3.2 -1.4
v -3.2 3.3 0.1
v -3.2 3.3 -1.4
v -3.2 3.3 -1.5
v -3.2 3.5 0.1
v -3.2 3.5 0
v -3.2 3.6 0
v -3.2 3.6 -0.2
v -3.2 3.6 -0.4
v -3.2 3.6 -1.5
v -3.2 3.7 -0.2
v -3.2 3.7 -0.4
v -3.5 3.2 0.1
v -3.5 3.3 0.1
v -3.5 3.5 0.1
v -3.2 3.2 0.1
v -3.2 3.3 0.1
v -3.2 3.5 0.1
v -3.5 2.5 0
v -3.5 2.9 0
v -3.5 3.5 0
v -3.5 3.6 0
v -3.4 2.5 0
v -3.4 2.6 0
v -3.2 2.5 0
v -3.2 2.6 0
v -3.2 2.9 0
v -3.2 3.5 0
v -3.2 3.6 0
v -3.5 2.9 -0.1
v -3.5 3.1 -0.1
v -3.5 3.2 -0.1
v -3.2 2.9 -0.1
v -3.2 3.1 -0.1
v -3.2 3.2 -0.1
v -3.5 3.6 -0.2
v -3.5 3.7 -0.2
v -3.4 3.6 -0.2
v -3.4 3.7 -0.2
v -3.3 3.6 -0.2
v -3.3 3.7 -0.2
v -3.2 3.6 -0.2
v -3.2 3.7 -0.2
v -3.4 3 -0.8
v -3.4 3.2 -0.8
v -3.3 3 -0.8
v -3.3 3.2 -0.8
v -3.4 3.6 -1.3
v -3.4 3.7 -1.3
v -3.3 3.6 -1.3
v -3.3 3.7 -1.3
v -3.5 2.5 -0.4
v -3.5 2.9 -0.4
v -3.5 3.6 -0.4
v -3.5 3.7 -0.4
v -3.4 3.6 -0.4
v -3.4 3.7 -0.4
v -3.3 3.6 -0.4
v -3.3 3.7 -0.4
v -3.2 2.5 -0.4
v -3.2 2.9 -0.4
v -3.2 3.6 -0.4
v -3.2 3.7 -0.4
v -3.5 2.9 -0.5
v -3.5 3.2 -0.5
v -3.4 2.9 -0.5
v -3.4 3.2 -0.5
v -3.3 2.9 -0.5
v -3.3 3.2 -0.5
v -3.2 2.9 -0.5
v -3.2 3.2 -0.5
v -3.4 3 -0.6
v -3.4 3.2 -0.6
v -3.3 3 -0.6
v -3.3 3.2 -0.6
v -3.4 2.9 -0.8
v -3.4 3 -0.8
v -3.3 2.9 -0.8
v -3.3 3 -0.8
v -3.4 3 -0.9
v -3.4 3.2 -0.9
v -3.3 3 -0.9
v -3.3 3.2 -0.9
v -3.5 3.2 -1.4
v -3.5 3.3 -1.4
v -3.4 3.4 -1.4
v -3.4 3.5 -1.4
v -3.3 3.4 -1.4
v -3.3 3.5 -1.4
v -3.2 3.2 -1.4
v -3.2 3.3 -1.4
v -3.5 3.3 -1.5
v -3.5 3.6 -1.5
v -3.4 3.4 -1.5
v -3.4 3.5 -1.5
v -3.4 3.6 -1.5
v -3.4 3.7 -1.5
v -3.3 3.4 -1.5
v -3.3 3.5 -1.5
v -3.3 3.6 -1.5
v -3.3 3.7 -1.5
v -3.2 3.3 -1.5
v -3.2 3.6 -1.5
v -3.5 2.5 0
v -3.4 2.5 0
v -3.2 2.5 0
v -3.5 2.5 -0.2
v -3.4 2.5 -0.2
v -3.5 2.5 -0.4
v -3.2 2.5 -0.4
v -3.5 2.9 -0.4
v -3.2 2.9 -0.4
v -3.5 2.9 -0.5
v -3.4 2.9 -0.5
v -3.3 2.9 -0.5
v -3.2 2.9 -0.5
v -3.4 2.9 -0.8
v -3.3 2.9 -0.8
v -3.4 3 -0.8
v -3.3 3 -0.8
v -3.4 3 -0.9
v -3.3 3 -0.9
v -3.5 3.2 0.1
v -3.2 3.2 0.1
v -3.5 3.2 -0.1
v -3.2 3.2 -0.1
v -3.5 3.2 -0.5
v -3.4 3.2 -0.5
v -3.3 3.2 -0.5
v -3.2 3.2 -0.5
v -3.4 3.2 -0.6
v -3.3 3.2 -0.6
v -3.4 3.2 -0.8
v -3.3 3.2 -0.8
v -3.4 3.2 -0.9
v -3.3 3.2 -0.9
v -3.5 3.2 -1.4
v -3.2 3.2 -1.4
v -3.5 3.3 -1.4
v -3.2 3.3 -1.4
v -3.5 3.3 -1.5
v -3.2 3.3 -1.5
v -3.4 3.5 -1.4
v -3.3 3.5 -1.4
v -3.4 3.5 -1.5
v -3.3 3.5 -1.5
v -3.5 2.9 0
v -3.2 2.9 0
v -3.5 2.9 -0.1
v -3.2 2.9 -0.1
v -3.4 3 -0.6
v -3.3 3 -0.6
v -3.4 3 -0.8
v -3.3 3 -0.8
v -3.4 3.4 -1.4
v -3.3 3.4 -1.4
v -3.4 3.4 -1.5
v -3.3 3.4 -1.5
v -3.5 3.5 0.1
v -3.2 3.5 0.1
v -3.5 3.5 0
v -3.2 3.5 0
v -3.5 3.6 0
v -3.2 3.6 0
v -3.5 3.6 -0.2
v -3.4 3.6 -0.2
v -3.3 3.6 -0.2
v -3.2 3.6 -0.2
v -3.5 3.6 -0.4
v -3.4 3.6 -0.4
v -3.3 3.6 -0.4
v -3.2 3.6 -0.4
v -3.4 3.6 -1.3
v -3.3 3.6 -1.3
v -3.5 3.6 -1.5
v -3.4 3.6 -1.5
v -3.3 3.6 -1.5
v -3.2 3.6 -1.5
v -3.5 3.7 -0.2
v -3.4 3.7 -0.2
v -3.3 3.7 -0.2
v -3.2 3.7 -0.2
v -3.5 3.7 -0.4
v -3.4 3.7 -0.4
v -3.3 3.7 -0.4
v -3.2 3.7 -0.4
v -3.4 3.7 -1.3
v -3.3 3.7 -1.3
v -3.4 3.7 -1.5
v -3.3 3.7 -1.5

# faces
f 4/3/1 2/3/1 1/3/1
f 4/2/1 3/2/1 2/2/1
f 5/2/1 3/2/1 4/2/1
f 6/3/1 4/3/1 1/3/1
f 6/3/1 5/3/1 4/3/1
f 7/3/1 5/3/1 6/3/1
f 8/2/1 3/2/1 5/2/1
f 10/3/1 5/3/1 7/3/1
f 11/2/1 9/2/1 8/2/1
f 11/3/1 5/3/1 10/3/1
f 11/2/1 8/2/1 5/2/1
f 13/2/1 11/2/1 10/2/1
f 14/2/1 9/2/1 11/2/1
f 14/2/1 11/2/1 13/2/1
f 16/2/1 13/2/1 12/2/1
f 16/2/1 15/2/1 14/2/1
f 16/2/1 14/2/1 13/2/1
f 17/2/1 15/2/1 16/2/1
f 19/1/1 17/1/1 16/1/1
f 19/1/1 18/1/1 17/1/1
f 20/1/1 18/1/1 19/1/1
f 21/1/1 18/1/1 20/1/1
f 22/1/1 18/1/1 21/1/1
f 23/1/1 18/1/1 22/1/1
f 24/1/1 18/1/1 23/1/1
f 25/1/1 23/1/1 22/1/1
f 26/1/1 23/1/1 25/1/1
f 29/2/1 28/2/1 27/2/1
f 30/2/1 28/2/1 29/2/1
f 32/2/1 29/2/1 27/2/1
f 33/2/1 29/2/1 32/2/1
f 34/2/1 31/2/1 30/2/1
f 35/2/1 31/2/1 34/2/1
f 38/1/1 37/1/1 36/1/1
f 39/1/1 37/1/1 38/1/1
f 42/1/1 41/1/1 40/1/1
f 43/1/1 41/1/1 42/1/1
f 46/1/1 45/1/1 44/1/1
f 47/1/1 45/1/1 46/1/1
f 48/1/2 49/1/2 50/1/2
f 50/1/2 49/1/2 51/1/2
f 52/1/2 53/1/2 54/1/2
f 54/1/2 53/1/2 55/1/2
f 56/2/2 57/2/2 58/2/2
f 58/2/2 57/2/2 59/2/2
f 56/2/2 58/2/2 61/2/2
f 61/2/2 58/2/2 62/2/2
f 59/2/2 60/2/2 63/2/2
f 63/2/2 60/2/2 64/2/2
f 65/1/2 66/1/2 67/1/2
f 67/1/2 66/1/2 68/1/2
f 69/2/2 70/2/2 71/2/2
f 71/2/2 70/2/2 72/2/2
f 71/3/2 72/3/2 73/3/2
f 73/3/2 72/3/2 74/3/2
f 72/2/2 70/2/2 75/2/2
f 74/3/2 72/3/2 75/3/2
f 75/2/2 70/2/2 76/2/2
f 76/2/2 70/2/2 77/2/2
f 74/3/2 75/3/2 79/3/2
f 75/3/2 76/3/2 79/3/2
f 77/2/2 78/2/2 80/2/2
f 79/3/2 76/3/2 80/3/2
f 76/2/2 77/2/2 80/2/2
f 79/2/2 80/2/2 82/2/2
f 80/2/2 78/2/2 83/2/2
f 82/2/2 80/2/2 83/2/2
f 81/2/2 82/2/2 85/2/2
f 83/2/2 84/2/2 85/2/2
f 82/2/2 83/2/2 85/2/2
f 85/2/2 84/2/2 86/2/2
f 85/1/2 86/1/2 88/1/2
f 86/1/2 87/1/2 88/1/2
f 88/1/2 87/1/2 89/1/2
f 89/1/2 87/1/2 90/1/2
f 90/1/2 87/1/2 91/1/2
f 91/1/2 87/1/2 92/1/2
f 92/1/2 87/1/2 93/1/2
f 91/1/2 92/1/2 94/1/2
f 94/1/2 92/1/2 95/1/2
f 99/2/3 97/2/3 96/2/3
f 100/1/3 98/1/3 97/1/3
f 100/2/3 97/2/3 99/2/3
f 101/1/3 98/1/3 100/1/3
f 106/3/3 103/3/3 102/3/3
f 107/3/3 103/3/3 106/3/3
f 108/2/3 107/2/3 106/2/3
f 109/3/3 103/3/3 107/3/3
f 109/2/3 107/2/3 108/2/3
f 110/3/3 103/3/3 109/3/3
f 111/1/3 105/1/3 104/1/3
f 112/1/3 105/1/3 111/1/3
f 116/3/3 114/3/3 113/3/3
f 117/2/3 115/2/3 114/2/3
f 117/3/3 114/3/3 116/3/3
f 118/2/3 115/2/3 117/2/3
f 121/1/3 120/1/3 119/1/3
f 122/1/3 120/1/3 121/1/3
f 125/1/3 124/1/3 123/1/3
f 126/1/3 124/1/3 125/1/3
f 129/2/3 128/2/3 127/2/3
f 130/2/3 128/2/3 129/2/3
f 133/1/3 132/1/3 131/1/3
f 134/1/3 132/1/3 133/1/3
f 137/1/4 138/1/4 139/1/4
f 139/1/4 138/1/4 140/1/4
f 135/2/4 136/2/4 143/2/4
f 143/2/4 136/2/4 144/2/4
f 141/1/4 142/1/4 145/1/4
f 145/1/4 142/1/4 146/1/4
f 147/2/4 148/2/4 149/2/4
f 149/2/4 148/2/4 150/2/4
f 151/2/4 152/2/4 153/2/4
f 153/2/4 152/2/4 154/2/4
f 155/2/4 156/2/4 157/2/4
f 157/2/4 156/2/4 158/2/4
f 159/2/4 160/2/4 161/2/4
f 161/2/4 160/2/4 162/2/4
f 163/2/4 164/2/4 165/2/4
f 165/2/4 164/2/4 166/2/4
f 169/1/4 170/1/4 171/1/4
f 171/1/4 170/1/4 172/1/4
f 167/2/4 168/2/4 173/2/4
f 173/2/4 168/2/4 174/2/4
f 175/1/4 176/1/4 177/1/4
f 177/1/4 176/1/4 178/1/4
f 178/1/4 176/1/4 179/1/4
f 175/1/4 177/1/4 181/1/4
f 179/1/4 180/1/4 182/1/4
f 178/1/4 179/1/4 182/1/4
f 182/1/4 180/1/4 183/1/4
f 183/1/4 180/1/4 184/1/4
f 175/1/4 181/1/4 185/1/4
f 181/1/4 182/1/4 185/1/4
f 182/1/4 183/1/4 185/1/4
f 185/1/4 183/1/4 186/1/4
f 190/3/5 188/3/5 187/3/5
f 191/2/5 189/2/5 188/2/5
f 191/3/5 188/3/5 190/3/5
f 192/2/5 191/2/5 190/2/5
f 193/2/5 189/2/5 191/2/5
f 193/2/5 191/2/5 192/2/5
f 196/2/5 195/2/5 194/2/5
f 197/2/5 195/2/5 196/2/5
f 198/2/5 195/2/5 197/2/5
f 199/2/5 195/2/5 198/2/5
f 200/2/5 198/2/5 197/2/5
f 201/2/5 198/2/5 200/2/5
f 204/2/5 203/2/5 202/2/5
f 205/2/5 203/2/5 204/2/5
f 208/2/5 207/2/5 206/2/5
f 209/2/5 207/2/5 208/2/5
f 214/2/5 211/2/5 210/2/5
f 215/2/5 213/2/5 212/2/5
f 216/2/5 214/2/5 210/2/5
f 216/2/5 215/2/5 214/2/5
f 217/2/5 213/2/5 215/2/5
f 217/2/5 215/2/5 216/2/5
f 218/2/5 216/2/5 210/2/5
f 219/2/5 213/2/5 217/2/5
f 220/2/5 218/2/5 210/2/5
f 220/2/5 219/2/5 218/2/5
f 221/2/5 213/2/5 219/2/5
f 221/2/5 219/2/5 220/2/5
f 224/1/5 223/1/5 222/1/5
f 225/1/5 223/1/5 224/1/5
f 228/1/5 227/1/5 226/1/5
f 229/1/5 227/1/5 228/1/5
f 230/3/6 231/3/6 232/3/6
f 232/3/6 231/3/6 233/3/6
f 234/2/6 235/2/6 236/2/6
f 236/2/6 235/2/6 237/2/6
f 238/1/6 239/1/6 240/1/6
f 240/1/6 239/1/6 241/1/6
f 242/1/6 243/1/6 244/1/6
f 244/1/6 243/1/6 245/1/6
f 246/1/6 247/1/6 248/1/6
f 248/1/6 247/1/6 249/1/6
f 249/1/6 247/1/6 250/1/6
f 250/1/6 247/1/6 251/1/6
f 249/1/6 250/1/6 253/1/6
f 253/1/6 250/1/6 254/1/6
f 252/1/6 253/1/6 256/1/6
f 254/1/6 255/1/6 256/1/6
f 253/1/6 254/1/6 256/1/6
f 256/1/6 255/1/6 257/1/6
f 252/1/6 256/1/6 258/1/6
f 258/1/6 256/1/6 259/1/6
f 257/1/6 255/1/6 260/1/6
f 260/1/6 255/1/6 261/1/6
f 262/1/6 263/1/6 266/1/6
f 266/1/6 263/1/6 267/1/6
f 264/1/6 265/1/6 268/1/6
f 268/1/6 265/1/6 269/1/6
f 270/1/6 271/1/6 272/1/6
f 272/1/6 271/1/6 273/1/6
