# MagicaVoxel @ Ephtracy

# group
o 

# material
mtllib hard-1.mtl
usemtl palette

# normals
vn -1 0 0
vn 1 0 0
vn 0 0 1
vn 0 0 -1
vn 0 -1 0
vn 0 1 0

# texcoords
vt 0.0332031 0.5
vt 0.654297 0.5

# verts
v -3.5 2.6 1.7
v -3.5 2.6 1.2
v -3.5 2.7 1.8
v -3.5 2.7 1.7
v -3.5 2.7 1.3
v -3.5 2.7 1.2
v -3.5 2.8 1.9
v -3.5 2.8 1.8
v -3.5 2.8 1.4
v -3.5 2.8 1.3
v -3.5 3.1 1.9
v -3.5 3.1 1.4
v -3.4 2.2 1.3
v -3.4 2.2 0.8
v -3.4 2.3 1.4
v -3.4 2.3 1.3
v -3.4 2.4 1.1
v -3.4 2.4 0.8
v -3.4 2.5 1.5
v -3.4 2.5 1.4
v -3.4 2.5 1.2
v -3.4 2.5 1.1
v -3.4 2.6 1.5
v -3.4 2.6 1.2
v -3.3 1.8 0.5
v -3.3 1.8 0.2
v -3.3 1.9 0.5
v -3.3 1.9 0.3
v -3.3 2 0.7
v -3.3 2 0.3
v -3.3 2.1 0.8
v -3.3 2.1 0.7
v -3.3 2.1 0.4
v -3.3 2.1 0.2
v -3.3 2.2 0.8
v -3.3 2.2 0.6
v -3.3 2.2 0.4
v -3.3 2.3 0.8
v -3.3 2.3 0.6
v -3.2 2.2 1.3
v -3.2 2.2 1.1
v -3.2 2.3 1.3
v -3.2 2.3 1.1
v -3 2.2 1.1
v -3 2.2 0.8
v -3 2.3 1.4
v -3 2.3 1.1
v -3 2.3 0.8
v -3 2.4 1.1
v -3 2.4 0.8
v -3 2.5 1.5
v -3 2.5 1.4
v -3 2.5 1.2
v -3 2.5 1.1
v -3 2.6 1.7
v -3 2.6 1.5
v -3 2.6 1.2
v -3 2.7 1.7
v -3 2.7 1.4
v -3 2.7 1.3
v -3 2.7 1.2
v -3 2.8 1.4
v -3 2.8 1.3
v -2.9 1.8 0.5
v -2.9 1.8 0.2
v -2.9 1.9 0.5
v -2.9 1.9 0.3
v -2.9 2 0.7
v -2.9 2 0.3
v -2.9 2.1 0.8
v -2.9 2.1 0.7
v -2.9 2.1 0.4
v -2.9 2.1 0.2
v -2.9 2.2 0.6
v -2.9 2.2 0.4
v -2.9 2.3 0.8
v -2.9 2.3 0.6
v -2.9 2.7 1.8
v -2.9 2.7 1.4
v -2.9 2.8 1.9
v -2.9 2.8 1.8
v -2.9 3.1 1.9
v -2.9 3.1 1.4
v -3.5 2.8 1.9
v -3.5 3.1 1.9
v -2.9 2.8 1.9
v -2.9 3.1 1.9
v -3.5 2.7 1.8
v -3.5 2.8 1.8
v -2.9 2.7 1.8
v -2.9 2.8 1.8
v -3.5 2.6 1.7
v -3.5 2.7 1.7
v -3 2.6 1.7
v -3 2.7 1.7
v -3.4 2.5 1.5
v -3.4 2.6 1.5
v -3 2.5 1.5
v -3 2.6 1.5
v -3.4 2.3 1.4
v -3.4 2.5 1.4
v -3 2.3 1.4
v -3 2.5 1.4
v -3.4 2.2 1.3
v -3.4 2.3 1.3
v -3.2 2.2 1.3
v -3.2 2.3 1.3
v -3.2 2.2 1.1
v -3.2 2.3 1.1
v -3 2.2 1.1
v -3 2.3 1.1
v -3.3 2.1 0.8
v -3.3 2.2 0.8
v -3 2.2 0.8
v -3 2.3 0.8
v -2.9 2.1 0.8
v -2.9 2.3 0.8
v -3.3 2 0.7
v -3.3 2.1 0.7
v -2.9 2 0.7
v -2.9 2.1 0.7
v -3.3 1.8 0.5
v -3.3 1.9 0.5
v -2.9 1.8 0.5
v -2.9 1.9 0.5
v -3.3 1.9 0.3
v -3.3 2 0.3
v -2.9 1.9 0.3
v -2.9 2 0.3
v -3.5 2.8 1.4
v -3.5 3.1 1.4
v -3 2.7 1.4
v -3 2.8 1.4
v -2.9 2.7 1.4
v -2.9 3.1 1.4
v -3.5 2.7 1.3
v -3.5 2.8 1.3
v -3 2.7 1.3
v -3 2.8 1.3
v -3.5 2.6 1.2
v -3.5 2.7 1.2
v -3.4 2.5 1.2
v -3.4 2.6 1.2
v -3 2.5 1.2
v -3 2.6 1.2
v -3 2.7 1.2
v -3.4 2.4 1.1
v -3.4 2.5 1.1
v -3 2.4 1.1
v -3 2.5 1.1
v -3.4 2.2 0.8
v -3.4 2.4 0.8
v -3.3 2.2 0.8
v -3.3 2.3 0.8
v -3 2.3 0.8
v -3 2.4 0.8
v -3.3 2.2 0.6
v -3.3 2.3 0.6
v -2.9 2.2 0.6
v -2.9 2.3 0.6
v -3.3 2.1 0.4
v -3.3 2.2 0.4
v -2.9 2.1 0.4
v -2.9 2.2 0.4
v -3.3 1.8 0.2
v -3.3 2.1 0.2
v -2.9 1.8 0.2
v -2.9 2.1 0.2
v -3.3 1.8 0.5
v -2.9 1.8 0.5
v -3.3 1.8 0.2
v -2.9 1.8 0.2
v -3.3 2 0.7
v -2.9 2 0.7
v -3.3 2 0.3
v -2.9 2 0.3
v -3.3 2.1 0.8
v -2.9 2.1 0.8
v -3.3 2.1 0.7
v -2.9 2.1 0.7
v -3.4 2.2 1.3
v -3.2 2.2 1.3
v -3.2 2.2 1.1
v -3 2.2 1.1
v -3.4 2.2 0.8
v -3.3 2.2 0.8
v -3 2.2 0.8
v -3.4 2.3 1.4
v -3 2.3 1.4
v -3.4 2.3 1.3
v -3.2 2.3 1.3
v -3.2 2.3 1.1
v -3 2.3 1.1
v -3.4 2.5 1.5
v -3 2.5 1.5
v -3.4 2.5 1.4
v -3 2.5 1.4
v -3.5 2.6 1.7
v -3 2.6 1.7
v -3.4 2.6 1.5
v -3 2.6 1.5
v -3.5 2.6 1.2
v -3.4 2.6 1.2
v -3.5 2.7 1.8
v -2.9 2.7 1.8
v -3.5 2.7 1.7
v -3 2.7 1.7
v -3 2.7 1.4
v -2.9 2.7 1.4
v -3.5 2.8 1.9
v -2.9 2.8 1.9
v -3.5 2.8 1.8
v -2.9 2.8 1.8
v -3.3 1.9 0.5
v -2.9 1.9 0.5
v -3.3 1.9 0.3
v -2.9 1.9 0.3
v -3.3 2.1 0.4
v -2.9 2.1 0.4
v -3.3 2.1 0.2
v -2.9 2.1 0.2
v -3.3 2.2 0.6
v -2.9 2.2 0.6
v -3.3 2.2 0.4
v -2.9 2.2 0.4
v -3.3 2.3 0.8
v -3 2.3 0.8
v -2.9 2.3 0.8
v -3.3 2.3 0.6
v -2.9 2.3 0.6
v -3.4 2.4 1.1
v -3 2.4 1.1
v -3.4 2.4 0.8
v -3 2.4 0.8
v -3.4 2.5 1.2
v -3 2.5 1.2
v -3.4 2.5 1.1
v -3 2.5 1.1
v -3.5 2.7 1.3
v -3 2.7 1.3
v -3.5 2.7 1.2
v -3 2.7 1.2
v -3.5 2.8 1.4
v -3 2.8 1.4
v -3.5 2.8 1.3
v -3 2.8 1.3
v -3.5 3.1 1.9
v -2.9 3.1 1.9
v -3.5 3.1 1.4
v -2.9 3.1 1.4

# faces
f 4/2/1 2/2/1 1/2/1
f 5/2/1 2/2/1 4/2/1
f 6/2/1 2/2/1 5/2/1
f 8/2/1 4/2/1 3/2/1
f 8/2/1 5/2/1 4/2/1
f 9/2/1 5/2/1 8/2/1
f 10/2/1 5/2/1 9/2/1
f 11/2/1 8/2/1 7/2/1
f 11/2/1 9/2/1 8/2/1
f 12/2/1 9/2/1 11/2/1
f 16/1/1 14/1/1 13/1/1
f 17/1/1 14/1/1 16/1/1
f 17/1/1 16/1/1 15/1/1
f 18/1/1 14/1/1 17/1/1
f 20/1/1 17/1/1 15/1/1
f 21/1/1 17/1/1 20/1/1
f 22/1/1 17/1/1 21/1/1
f 23/1/1 20/1/1 19/1/1
f 23/1/1 21/1/1 20/1/1
f 24/1/1 21/1/1 23/1/1
f 27/1/1 26/1/1 25/1/1
f 28/1/1 26/1/1 27/1/1
f 30/1/1 26/1/1 28/1/1
f 32/1/1 30/1/1 29/1/1
f 33/1/1 30/1/1 32/1/1
f 34/1/1 26/1/1 30/1/1
f 34/1/1 30/1/1 33/1/1
f 35/1/1 33/1/1 32/1/1
f 35/1/1 32/1/1 31/1/1
f 36/1/1 33/1/1 35/1/1
f 37/1/1 33/1/1 36/1/1
f 38/1/1 36/1/1 35/1/1
f 39/1/1 36/1/1 38/1/1
f 40/1/2 41/1/2 42/1/2
f 42/1/2 41/1/2 43/1/2
f 44/1/2 45/1/2 47/1/2
f 47/1/2 45/1/2 48/1/2
f 46/1/2 47/1/2 49/1/2
f 47/1/2 48/1/2 49/1/2
f 49/1/2 48/1/2 50/1/2
f 46/1/2 49/1/2 52/1/2
f 52/1/2 49/1/2 53/1/2
f 53/1/2 49/1/2 54/1/2
f 51/1/2 52/1/2 56/1/2
f 52/1/2 53/1/2 56/1/2
f 56/1/2 53/1/2 57/1/2
f 55/2/2 56/2/2 58/2/2
f 56/2/2 57/2/2 58/2/2
f 58/2/2 57/2/2 59/2/2
f 59/2/2 57/2/2 60/2/2
f 60/2/2 57/2/2 61/2/2
f 59/2/2 60/2/2 62/2/2
f 62/2/2 60/2/2 63/2/2
f 64/1/2 65/1/2 66/1/2
f 66/1/2 65/1/2 67/1/2
f 67/1/2 65/1/2 69/1/2
f 68/1/2 69/1/2 71/1/2
f 71/1/2 69/1/2 72/1/2
f 69/1/2 65/1/2 73/1/2
f 72/1/2 69/1/2 73/1/2
f 71/1/2 72/1/2 74/1/2
f 70/1/2 71/1/2 74/1/2
f 74/1/2 72/1/2 75/1/2
f 70/1/2 74/1/2 76/1/2
f 76/1/2 74/1/2 77/1/2
f 78/2/2 79/2/2 81/2/2
f 80/2/2 81/2/2 82/2/2
f 81/2/2 79/2/2 83/2/2
f 82/2/2 81/2/2 83/2/2
f 86/2/3 85/2/3 84/2/3
f 87/2/3 85/2/3 86/2/3
f 90/2/3 89/2/3 88/2/3
f 91/2/3 89/2/3 90/2/3
f 94/2/3 93/2/3 92/2/3
f 95/2/3 93/2/3 94/2/3
f 98/1/3 97/1/3 96/1/3
f 99/1/3 97/1/3 98/1/3
f 102/1/3 101/1/3 100/1/3
f 103/1/3 101/1/3 102/1/3
f 106/1/3 105/1/3 104/1/3
f 107/1/3 105/1/3 106/1/3
f 110/1/3 109/1/3 108/1/3
f 111/1/3 109/1/3 110/1/3
f 114/1/3 113/1/3 112/1/3
f 116/1/3 114/1/3 112/1/3
f 116/1/3 115/1/3 114/1/3
f 117/1/3 115/1/3 116/1/3
f 120/1/3 119/1/3 118/1/3
f 121/1/3 119/1/3 120/1/3
f 124/1/3 123/1/3 122/1/3
f 125/1/3 123/1/3 124/1/3
f 128/1/3 127/1/3 126/1/3
f 129/1/3 127/1/3 128/1/3
f 130/2/4 131/2/4 133/2/4
f 132/2/4 133/2/4 134/2/4
f 133/2/4 131/2/4 135/2/4
f 134/2/4 133/2/4 135/2/4
f 136/2/4 137/2/4 138/2/4
f 138/2/4 137/2/4 139/2/4
f 140/2/4 141/2/4 143/2/4
f 142/1/4 143/1/4 144/1/4
f 143/2/4 141/2/4 145/2/4
f 144/1/4 143/1/4 145/1/4
f 145/2/4 141/2/4 146/2/4
f 147/1/4 148/1/4 149/1/4
f 149/1/4 148/1/4 150/1/4
f 151/1/4 152/1/4 153/1/4
f 153/1/4 152/1/4 154/1/4
f 154/1/4 152/1/4 155/1/4
f 155/1/4 152/1/4 156/1/4
f 157/1/4 158/1/4 159/1/4
f 159/1/4 158/1/4 160/1/4
f 161/1/4 162/1/4 163/1/4
f 163/1/4 162/1/4 164/1/4
f 165/1/4 166/1/4 167/1/4
f 167/1/4 166/1/4 168/1/4
f 171/1/5 170/1/5 169/1/5
f 172/1/5 170/1/5 171/1/5
f 175/1/5 174/1/5 173/1/5
f 176/1/5 174/1/5 175/1/5
f 179/1/5 178/1/5 177/1/5
f 180/1/5 178/1/5 179/1/5
f 183/1/5 182/1/5 181/1/5
f 185/1/5 183/1/5 181/1/5
f 185/1/5 184/1/5 183/1/5
f 186/1/5 184/1/5 185/1/5
f 187/1/5 184/1/5 186/1/5
f 190/1/5 189/1/5 188/1/5
f 191/1/5 189/1/5 190/1/5
f 192/1/5 189/1/5 191/1/5
f 193/1/5 189/1/5 192/1/5
f 196/1/5 195/1/5 194/1/5
f 197/1/5 195/1/5 196/1/5
f 200/2/5 199/2/5 198/2/5
f 201/2/5 199/2/5 200/2/5
f 202/2/5 200/2/5 198/2/5
f 203/2/5 200/2/5 202/2/5
f 206/2/5 205/2/5 204/2/5
f 207/2/5 205/2/5 206/2/5
f 208/2/5 205/2/5 207/2/5
f 209/2/5 205/2/5 208/2/5
f 212/2/5 211/2/5 210/2/5
f 213/2/5 211/2/5 212/2/5
f 214/1/6 215/1/6 216/1/6
f 216/1/6 215/1/6 217/1/6
f 218/1/6 219/1/6 220/1/6
f 220/1/6 219/1/6 221/1/6
f 222/1/6 223/1/6 224/1/6
f 224/1/6 223/1/6 225/1/6
f 226/1/6 227/1/6 229/1/6
f 227/1/6 228/1/6 229/1/6
f 229/1/6 228/1/6 230/1/6
f 231/1/6 232/1/6 233/1/6
f 233/1/6 232/1/6 234/1/6
f 235/1/6 236/1/6 237/1/6
f 237/1/6 236/1/6 238/1/6
f 239/2/6 240/2/6 241/2/6
f 241/2/6 240/2/6 242/2/6
f 243/2/6 244/2/6 245/2/6
f 245/2/6 244/2/6 246/2/6
f 247/2/6 248/2/6 249/2/6
f 249/2/6 248/2/6 250/2/6
