# MagicaVoxel @ Ephtracy

# group
o 

# material
mtllib player-1.mtl
usemtl palette

# normals
vn -1 0 0
vn 1 0 0
vn 0 0 1
vn 0 0 -1
vn 0 -1 0
vn 0 1 0

# texcoords
vt 0.0332031 0.5
vt 0.654297 0.5

# verts
v -1.3 2.7 0.1
v -1.3 2.7 -0.4
v -1.3 3.1 0.1
v -1.3 3.1 -0.4
v -1.2 1.2 0.1
v -1.2 1.2 -0.4
v -1.2 1.5 0.1
v -1.2 1.5 0
v -1.2 1.5 -0.3
v -1.2 1.5 -0.4
v -1.2 2.7 0
v -1.2 2.7 -0.3
v -0.8 1.2 0.1
v -0.8 1.2 -0.4
v -0.8 1.5 0.1
v -0.8 1.5 0
v -0.8 1.5 -0.3
v -0.8 1.5 -0.4
v -0.8 2.7 0
v -0.8 2.7 -0.3
v -0.7 2.7 0.1
v -0.7 2.7 -0.4
v -0.7 3.1 0.1
v -0.7 3.1 -0.4
v -1.3 2.7 0.1
v -1.3 3.1 0.1
v -1.2 1.2 0.1
v -1.2 1.5 0.1
v -0.8 1.2 0.1
v -0.8 1.5 0.1
v -0.7 2.7 0.1
v -0.7 3.1 0.1
v -1.2 1.5 0
v -1.2 2.7 0
v -0.8 1.5 0
v -0.8 2.7 0
v -1.2 1.5 -0.3
v -1.2 2.7 -0.3
v -0.8 1.5 -0.3
v -0.8 2.7 -0.3
v -1.3 2.7 -0.4
v -1.3 3.1 -0.4
v -1.2 1.2 -0.4
v -1.2 1.5 -0.4
v -0.8 1.2 -0.4
v -0.8 1.5 -0.4
v -0.7 2.7 -0.4
v -0.7 3.1 -0.4
v -1.2 1.2 0.1
v -0.8 1.2 0.1
v -1.2 1.2 -0.4
v -0.8 1.2 -0.4
v -1.3 2.7 0.1
v -0.7 2.7 0.1
v -1.2 2.7 0
v -0.8 2.7 0
v -1.2 2.7 -0.3
v -0.8 2.7 -0.3
v -1.3 2.7 -0.4
v -0.7 2.7 -0.4
v -1.2 1.5 0.1
v -0.8 1.5 0.1
v -1.2 1.5 0
v -0.8 1.5 0
v -1.2 1.5 -0.3
v -0.8 1.5 -0.3
v -1.2 1.5 -0.4
v -0.8 1.5 -0.4
v -1.3 3.1 0.1
v -0.7 3.1 0.1
v -1.3 3.1 -0.4
v -0.7 3.1 -0.4

# faces
f 3/2/1 2/2/1 1/2/1
f 4/2/1 2/2/1 3/2/1
f 7/1/1 6/1/1 5/1/1
f 8/1/1 6/1/1 7/1/1
f 9/1/1 6/1/1 8/1/1
f 10/1/1 6/1/1 9/1/1
f 11/1/1 9/1/1 8/1/1
f 12/1/1 9/1/1 11/1/1
f 13/1/2 14/1/2 15/1/2
f 15/1/2 14/1/2 16/1/2
f 16/1/2 14/1/2 17/1/2
f 17/1/2 14/1/2 18/1/2
f 16/1/2 17/1/2 19/1/2
f 19/1/2 17/1/2 20/1/2
f 21/2/2 22/2/2 23/2/2
f 23/2/2 22/2/2 24/2/2
f 29/1/3 28/1/3 27/1/3
f 30/1/3 28/1/3 29/1/3
f 31/2/3 26/2/3 25/2/3
f 32/2/3 26/2/3 31/2/3
f 35/1/3 34/1/3 33/1/3
f 36/1/3 34/1/3 35/1/3
f 37/1/4 38/1/4 39/1/4
f 39/1/4 38/1/4 40/1/4
f 43/1/4 44/1/4 45/1/4
f 45/1/4 44/1/4 46/1/4
f 41/2/4 42/2/4 47/2/4
f 47/2/4 42/2/4 48/2/4
f 51/1/5 50/1/5 49/1/5
f 52/1/5 50/1/5 51/1/5
f 55/2/5 54/2/5 53/2/5
f 56/2/5 54/2/5 55/2/5
f 57/2/5 55/2/5 53/2/5
f 58/2/5 54/2/5 56/2/5
f 59/2/5 57/2/5 53/2/5
f 59/2/5 58/2/5 57/2/5
f 60/2/5 54/2/5 58/2/5
f 60/2/5 58/2/5 59/2/5
f 61/1/6 62/1/6 63/1/6
f 63/1/6 62/1/6 64/1/6
f 65/1/6 66/1/6 67/1/6
f 67/1/6 66/1/6 68/1/6
f 69/2/6 70/2/6 71/2/6
f 71/2/6 70/2/6 72/2/6
